<?xml version="1.0" encoding="utf-8"?>
<!-- Generator: Adobe Illustrator 24.1.2, SVG Export Plug-In . SVG Version: 6.00 Build 0)  -->
<svg version="1.1" id="pp20_logo" xmlns="http://www.w3.org/2000/svg" xmlns:xlink="http://www.w3.org/1999/xlink" x="0px" y="0px"
	 viewBox="0 0 470 218" style="enable-background:new 0 0 470 218;" xml:space="preserve">
<style type="text/css">
	.st0{fill:#FF00C5;}
	.st1{fill:#FFFF00;}
	.st2{fill:#FFFFFF;}
	.st3{fill-rule:evenodd;clip-rule:evenodd;}
	.st4{fill-rule:evenodd;clip-rule:evenodd;fill:#FFFFFF;}
	.st5{fill-rule:evenodd;clip-rule:evenodd;fill:#FFFF00;}
</style>
<g>
	<g>
		<g>
			<g>
				<path class="st0" d="M243.1-1.3c-1.7,0-3.3,0.2-4.9,0.5L229,1.2c-0.3,0-0.5,0-0.8,0.1l-18.7,4.2c-1.5,0.3-2.7,1.4-3.2,2.9
					l-7.9,23.1c-0.1,0.3-0.2,0.6-0.2,0.8l-3.2,9.8l-24.8,5.1l4.4-5.7c0.1-0.1,0.2-0.2,0.2-0.3c0.6-1,1-2.1,1-3.3
					c0-3.4-2.8-6.2-6.2-6.2c-0.3,0-0.5,0-0.8,0c-0.1,0-0.2,0-0.3,0L151.9,34L140,35.6l-6.8-9.9l-9.6-14.1c0,0,0-0.1-0.1-0.1
					c-1.2-1.6-3-2.6-5-2.6c-3,0-5.5,2.1-6.1,5c0,0,0,0,0,0.1l-3,16.8l-0.9,5c-0.1-0.1-0.2-0.1-0.3-0.2c-0.3-0.2-0.7-0.4-1-0.5
					c-3.6-1.2-7.3-1.8-11-1.8c-3.2,0-6.4,0.4-9.7,1.3l-25.8,5.6c-11.5,2.4-20.9,10.9-24.5,22L1.3,169c-2.4,7.2-1.1,15.2,3.3,21.3
					c4.5,6.2,11.6,9.8,19.2,9.8h16.9c10.3,0,19.3-6.5,22.5-16.3l4.4-13.4l134.5,0.2c5.7,0,11.2-2.1,15.5-5.7
					c4.3,3.7,9.9,5.9,15.7,5.9h14.9c0.2,0,0.5,0,0.7,0l9.4,0c10.3,0,19.4-6.6,22.6-16.4l2.3-6.9l5.8,0c0,0,0,0,0,0c0,0,0,0,0.1,0
					l0,0c0,0,0.1,0,0.1,0c0,0,0,0,0,0c1.2,0,2.4-0.1,3.6-0.2c8.5,9.8,19.4,17.1,31.7,21.2c0.1,0,0.2,0.1,0.3,0.1c0,0,0,0,0,0l0,0
					c0,0,0,0,0,0c7.3,2.4,14.8,3.6,22.4,3.6c6.5,0,13-0.9,19.2-2.6c2.4,0.8,4.8,1.1,7.3,1.2l16.8,0c1.4,0,2.8-0.1,4.3-0.4
					c9.4-0.9,17.3-7.3,20.3-16.3l2.2-6.6l3.9,0c0,0,0,0,0.1,0l0,0c0,0,0.1,0,0.1,0c0,0,0,0,0,0c1.8,0,3.6-0.2,5.5-0.5
					c12.7-1.5,23.8-10.5,27.8-22.4l0.1-0.2l12.6-39.9c4.7-14.4,2.2-28.4-6.8-38.2c-7.1-7.7-16.4-12-26.3-12c-2,0-4.1,0.2-6.3,0.6
					c-1.8,0.2-3.6,0.5-5.3,1l-22.5,4.8c-0.4,0.1-0.7,0.2-1,0.2c-1.2,0.3-2.3,0.7-3.5,1.1c-7.2-6.2-15.4-10.9-24.5-13.9
					c-7.4-2.4-15-3.7-22.7-3.7c-6.8,0-13.6,1-20.2,2.9c-6.5-5.5-14.5-8.5-22.7-8.5c-3.2,0-6.3,0.4-9.6,1.3
					c-1.5,0.3-18.6,3.9-29.6,6.1c1.1-7-0.9-14.3-5.7-19.7C256.3,1.6,249.8-1.3,243.1-1.3L243.1-1.3z"/>
			</g>
		</g>
	</g>
	<g>
		<path class="st1" d="M457.5,49.3c-6.3-6.8-14.5-10.5-23.1-10.5c-1.9,0-3.8,0.2-5.7,0.5c-1.6,0.2-3.3,0.5-5,0.9L401.1,45
			c-0.3,0.1-0.6,0.1-0.8,0.2c-1.9,0.5-3.7,1.2-5.4,2c-7.1-6.7-15.7-11.8-25-14.9c-6.9-2.3-14.1-3.4-21.3-3.4
			c-7.1,0-14.4,1.2-21.3,3.5c-6-5.8-13.6-9-21.6-9c-2.8,0-5.7,0.4-8.6,1.1c0,0-24.8,5.2-34.7,7.2l-2,0.5l1.1-3.6
			c2.2-6.6,0.7-13.9-3.9-19c-3.7-4.1-8.9-6.5-14.5-6.5c-1.3,0-2.7,0.1-4,0.4l-10,2.1l0.1-0.1l-18.7,4.2l-7.9,23.1l0.1-0.1l-4.3,13.1
			l-38.8,8l11.7-15.1c0.2-0.3,0.3-0.6,0.3-1c0-1-0.8-1.8-1.8-1.8c-0.1,0-0.3,0-0.4,0c0,0,0,0,0,0l-16.6,2.3l-14.1,2l-0.5,0.1
			l-0.3-0.4l-8-11.8L120,14.1c-0.3-0.5-0.9-0.8-1.5-0.8c-0.9,0-1.6,0.6-1.8,1.5l-3,16.8l-2.1,11.8c-1.6-1.3-3.5-2.6-5.8-4.2
			c-3.6-1.2-7-1.6-9.6-1.6c-2.9,0-5.7,0.4-8.7,1.2l-25.9,5.7c-10,2.1-18.1,9.4-21.3,19.1l-35,106.8c-1.9,5.9-0.9,12.4,2.7,17.4
			c3.6,5,9.5,8,15.7,8h16.9c8.4,0,15.7-5.3,18.4-13.3l5.4-16.4l137.7,0.2c6.3,0,12-3,15.5-7.7c3.6,4.9,9.3,7.9,15.6,7.9h14.9
			c0.2,0,0.4,0,0.6,0l9.5,0c8.4,0,15.8-5.4,18.4-13.4l3.2-9.9l9,0l0.2,0v0c1.8,0,3.6-0.2,5.4-0.6c8.2,10.1,19.1,17.7,31.4,21.8
			c0,0,0,0,0.1,0c0.1,0,0.1,0,0.2,0.1c6.8,2.2,13.9,3.4,21.1,3.4c6.6,0,13.1-0.9,19.4-2.8c2.3,0.9,4.7,1.4,7.1,1.4l16.8,0
			c1.3,0,2.5-0.1,3.7-0.4c7.7-0.7,14.3-5.8,16.7-13.3l3.2-9.6l7,0l0.2,0v0c1.7,0,3.3-0.2,4.9-0.5c11-1.2,20.8-8.9,24.3-19.4l0.1-0.2
			l12.6-39.9C467.6,70.3,465.4,58,457.5,49.3z"/>
	</g>
	<path d="M450.3,55.9c-5.6-6.1-11.8-7.4-15.9-7.4c-2.1,0-4.2,0.3-6.4,0.9l-22.9,4.8c-0.1,0-0.3,0.1-0.4,0.1
		c-4.1,1.1-7.7,3.5-10.2,6.8c-0.3-0.3-0.6-0.6-0.9-1c-6.8-8.3-15.9-14.9-26.8-18.5c-5.9-2-12.1-2.9-18.3-2.9
		c-8.3,0-16.7,1.9-24.3,5.4c-0.7-1.3-1.6-2.4-2.6-3.5c-5.6-6.1-11.8-7.4-15.9-7.4c-2.1,0-4.2,0.3-6.4,0.9l-53.7,11.5l6.7-19.8
		c1.1-3.3,0.4-6.9-2-9.5c-1.9-2.1-4.5-3.2-7.2-3.2c-0.7,0-1.3,0.1-2,0.2l-12.3,2.6c-0.1,0-0.2,0.1-0.4,0.1l-10.7,2.4l-4.9,14.7l0,0
		l-8.1,24.4c-1.6-1-3.4-1.6-5.3-1.6c-0.7,0-1.3,0.1-2,0.2c0,0-51.7,11-54,11.5l-2.2-4.6l3.5-4.6l5.9-7.6c0,0,0,0,0,0
		c0.2-0.3,0.4-0.7,0.4-1.1c0-1-0.8-1.8-1.8-1.8c-0.1,0-0.1,0-0.2,0l-9.6,1.3l-5.7,0.8l-3.3-4.8l-5.4-8c0,0,0,0,0,0
		c-0.3-0.5-0.9-0.8-1.5-0.8c-0.8,0-1.4,0.5-1.7,1.2l-1.7,9.8l-1,5.7l-5.5,1.6l-1.3,0.4c-0.8-0.9-1.8-1.9-3-3
		c-4.7-3.8-9.5-4.6-13-4.6c-2.1,0-4.2,0.3-6.4,0.9l-26.1,5.7c-6.6,1.4-12,6.2-14.2,12.6l-35,106.8c-1,3-0.5,6.2,1.4,8.7
		c1.8,2.5,4.7,4,7.8,4l16.9,0c4.2,0,7.9-2.7,9.2-6.6l7.7-23l144.7,0.2c0,0,0,0,0,0c4.2,0,7.9-2.7,9.2-6.7l6.3-19.3l6.4,19.5
		c1.3,4,5,6.7,9.2,6.7h14.9c0.1,0,0.2,0,0.3,0l9.9,0c0,0,0,0,0,0c4.2,0,7.9-2.7,9.2-6.7l5.4-16.6l16,0c0,0,0,0,0,0c0,0,0.1,0,0.1,0
		c3.2,0,6.3-0.9,9.1-2.4c7,11,17.6,19.8,30.8,24.1c0.1,0,0.1,0,0.2,0.1l0,0c5.9,1.9,11.9,2.9,18.1,2.9c7,0,13.9-1.2,20.4-3.7
		c0.6-0.2,1.1-0.5,1.6-0.7c1.8,1.7,4.1,2.6,6.6,2.6l14.1,0l0.7,0.3c-0.1-0.1-0.2-0.2-0.3-0.3l2.3,0c0,0,0,0,0,0
		c4.2,0,7.9-2.7,9.2-6.7l5.4-16.6l16,0c0,0,0,0,0,0c0,0,0.1,0,0.1,0c8.1-0.1,15.5-5.4,18-13c0,0,0-0.1,0-0.1l12.6-39.9
		C457.3,70.8,455.9,61.9,450.3,55.9z"/>
	<g>
		<path class="st2" d="M123.7,64.8l-0.2,8l5.8-5.6c0.1-0.1,0.2-0.1,0.3-0.2c0.2-0.1,0.4-0.1,0.6,0l7.6,2.7l-3.5-7.2
			c-0.1-0.3-0.1-0.7,0.1-0.9l4.9-6.3l-7.9,1.1c-0.3,0-0.7-0.1-0.8-0.4l-4.5-6.6l-1.4,7.9c-0.1,0.3-0.3,0.6-0.6,0.7l-7.7,2.2l7.1,3.8
			C123.5,64.2,123.7,64.5,123.7,64.8z"/>
		<path class="st2" d="M125.9,49.4l4.5,6.6c0.2,0.3,0.5,0.4,0.8,0.4l7.9-1.1l-4.9,6.3c-0.2,0.3-0.2,0.6-0.1,0.9l3.5,7.2l-7.6-2.7
			c-0.2-0.1-0.4-0.1-0.6,0c-0.1,0-0.2,0.1-0.3,0.2l-5.8,5.6l0.2-8c0-0.3-0.2-0.6-0.5-0.8l-7.1-3.8l7.7-2.2c0,0,0.1,0,0.1,0
			c0.3-0.1,0.5-0.4,0.5-0.7L125.9,49.4"/>
	</g>
	<g>
		<path class="st2" d="M105.2,61.3c-2.6-2.9-5.5-4.3-8.8-4.3c-1.3,0-2.6,0.2-4.1,0.6l-26.4,5.8c-3.2,0.7-6,3.1-7,6.2l-35,106.8
			l16.9,0l9.6-29c0.1-0.4,0.5-0.7,0.9-0.7h0l25.7,0c4.2,0,7.3-2.2,8.6-6.1l21.1-64.5C108.9,69.7,108.3,64.7,105.2,61.3z M90.4,75.2
			l-18.2,55.4c-0.1,0.4-0.5,0.7-0.9,0.7l-14.2,0l0,0c-0.3,0-0.6-0.2-0.8-0.4c-0.2-0.2-0.2-0.6-0.1-0.9l16.6-51.2
			c0.1-0.3,0.4-0.5,0.7-0.6L89.2,74c0.3-0.1,0.7,0,1,0.3C90.4,74.5,90.5,74.9,90.4,75.2z"/>
		<path class="st2" d="M122.4,81.6c-3,0.7-5.5,3-6.4,5.9l-19.3,59.2l16.8,0l22.2-68L122.4,81.6z"/>
		<path class="st2" d="M186.3,68.1c-3.2,0.7-5.8,3.1-6.7,6.3c0,0,0,0.1-0.1,0.2l-9,27.6c-0.1,0.4-0.6,0.7-1,0.7
			c-0.5-0.1-0.8-0.4-0.9-0.9l-2.5-29.5l-12,2.5c-2.9,0.7-5.2,2.8-6.3,5.7l-21.7,66.2l16.8,0l10.1-30.9c0.1-0.4,0.5-0.7,1-0.7
			c0.5,0,0.8,0.4,0.9,0.8l4.2,30.7l13.6,0l26.7-81.5L186.3,68.1z"/>
	</g>
	<path class="st2" d="M443.1,62.4c-2.6-2.9-5.5-4.3-8.8-4.3c-1.3,0-2.6,0.2-4.1,0.6L407,63.7c-3,0.8-5.5,3.1-6.4,6.1l-4.2,13.1
		c-4.3-13.6-14.2-24.7-27-30.6c-0.1-0.1-0.3-0.1-0.4-0.2c-0.6-0.3-1.1-0.5-1.7-0.7c-0.6-0.2-1.2-0.5-1.8-0.7c0,0-0.1,0-0.1,0
		c-0.5-0.2-1.1-0.4-1.6-0.6c-5-1.6-10.1-2.5-15.3-2.5c-0.1,0-0.3,0-0.4,0c0,0,0,0,0,0c-11.7,0-22.5,4-31.1,10.6
		c0.6-3.4,0.6-8.1-2.6-11.5c-2.6-2.9-5.5-4.3-8.8-4.3c-1.3,0-2.6,0.2-4.1,0.6l-23.3,4.9c-3,0.8-5.4,3.2-6.2,6.2
		c0,0.1-0.1,0.1-0.1,0.2l-26,79.3l-13.1-39.4c-0.1-0.3,0-0.7,0.2-0.9l37.3-43.4l-25.9,5.6l-17.3,20.2c-0.3,0.3-0.8,0.4-1.2,0.2
		c-0.4-0.2-0.6-0.7-0.4-1.1l17.6-52.6c0,0-5.9,1.3-9.7,2.1l0,0l-1,0.2c-1.2,0.3-2,0.4-2,0.4c0,0-0.1,0-0.1,0l-5,1.1l-1.7,5.1
		c0,0,0,0.1,0,0.1c-0.1,0.2-38,115.3-38,115.3l16.8,0l14.5-44.6c0.1-0.4,0.5-0.7,0.9-0.7c0.4,0,0.8,0.3,0.9,0.7l14.8,44.8h14.9l0,0
		l10.2,0l7.4-22.6c0.1-0.4,0.5-0.7,0.9-0.7l22.3,0c3.9,0,7.7-2.7,8.9-6.3l1.4-4.4c6.2,20.9,25.6,36.2,48.6,36.2
		c11.3,0,21.8-3.7,30.3-10l-2.5,7.8l16.8,0l7.4-22.6c0.1-0.4,0.5-0.7,0.9-0.7l22.3,0c3.9,0,7.7-2.7,8.9-6.3l12.6-39.9
		C445.8,74.4,447.5,67.2,443.1,62.4z M299.6,60.7l-15.3,46.9c-0.1,0.4-0.5,0.7-0.9,0.7l-11,0.1c0,0,0,0,0,0c-0.3,0-0.6-0.1-0.8-0.4
		c-0.2-0.3-0.2-0.6-0.1-0.9L286,62.9c0.1-0.3,0.4-0.6,0.7-0.6l11.8-2.8c0.3-0.1,0.7,0,0.9,0.3C299.6,60,299.7,60.3,299.6,60.7z
		 M428.2,76.4l-9.8,31.1c-0.1,0.4-0.5,0.7-0.9,0.7l-11,0.1c0,0,0,0,0,0c-0.3,0-0.6-0.1-0.8-0.4c-0.2-0.2-0.2-0.6-0.1-0.9l8.9-28.5
		c0.1-0.3,0.4-0.6,0.7-0.6l11.8-2.8c0.3-0.1,0.7,0,0.9,0.3C428.3,75.7,428.3,76.1,428.2,76.4z"/>
	<g>
		<g>
			<path class="st3" d="M327.1,127.2c1.2-0.7,3.1-2.9,3.3-2.9l0.2-0.1l0.2,0.1c0.4,0,0.3,0.2,0.2,0.3c-1.2,1.6-2.9,3.1-4,4.6
				c-0.3,0.4-0.5,0.8-0.8,1.2c-0.7-0.5-1.5-1-2.2-1.6c1-1.8,2-3.7,2.9-5.5c0.2-0.4,0.9-2.2,1.8-1.4c0.3,0.1-1.6,3.2-1.8,5.1
				C327,127.1,327,127.2,327.1,127.2z M362.9,134.2c-0.7,0.3-1.3,0.5-2,0.8c0.5-1.4,1-2.7,1.8-4c0.1-0.5,0.5-1.2,1-1.4
				c0.3-0.1,0.4,0.3,0.5,0.5C364.2,130.3,363.4,132.4,362.9,134.2z M379.3,121.4c-1.9-1.9-4.4-3.3-6.9-3.9c-2.8-0.7-3.8,2.1-5.5,3.4
				c-1.5,1.5-3.3,2.7-5.1,3.4c-4.5,2.1-9.5,0.8-12.9-2.3c-0.2,0-0.5,0.7-0.5,0.7c-0.3,0.8-1.1,1.4-2.2,1.3c-1-0.1-1.4-1.2-1.8-1.9
				c-1.1,0.5-2.2,1.1-3.4,1.5c-2.2,0.7-4.6,0.6-6.2-1.1c-1.3-1.6-0.8-4.4-0.2-6.1c0-0.4-0.6-0.3-1.2-0.3c-5.7-0.3-11,2.8-15.4,6.3
				c-0.1,0.1-0.1,0.1-0.2,0.2c-5.4-6.7-8.6-15.1-8.6-24.3c0-21.4,17.4-38.8,38.8-38.8c21.4,0,38.8,17.4,38.8,38.8
				C386.9,107,384.1,115,379.3,121.4z"/>
			<path class="st4" d="M363.7,97.4c-0.6-1.2-1-2.9-0.5-4.3c0.1-0.7,0.4-1.1,0.7-1.8c0.6-0.9,1.1-2,1.1-3.1c0-0.3,0-0.7-0.6-0.5
				c-1,0.6-1.9,0.6-3,0.3c-1.3-0.5-1.1-2.3-2.4-2.8c-0.4,0-0.7,0.1-1,0c-0.6-0.4-1.2-1-1.3-1.8c-0.1-0.9-0.1-1.9,0.5-2.5
				c0.8-0.3,0.6,0.7,1,1.1c0.3,0.2,0.7,0,0.8-0.3c0.1-0.6,0.2-1.3,0.1-2c0,0-0.1-0.2-0.1-0.5c-0.1-0.3-0.5-1.7-1-1.6
				c-0.7,0.6-1.7,0.4-2.5,0.7c-0.2,0-0.4,0.5-0.5,1c-0.4,1.6-1.8,3-3.3,3.5c-0.4,0-0.2-0.9-0.5-0.8c-0.4,0.2-0.9,0.7-1.4,1
				c-0.4,0-0.9,0.5-1.2,0.1c-0.2-0.3,0.2-0.8,0.4-1c0.3-0.5,0.3-1.7-0.1-1.7c-0.3,1.1-1,2.2-2.2,2.8c-2.3,0.5,0.3-1.8-0.7-2.7
				c-0.4,1.7-1.3,3.1-3,4.1c-1.4,0.7-2.9,0.6-4.3-0.1c-0.6-0.4-1.3-1.2-1.3-2c0.1-1.7,1.5,0.2,2.4-0.5c0.4-0.4,0.5-0.9,0.5-1.5
				c-0.2-0.8-0.9-2.2-1.6-1.8c-0.8,1.3-2.1,2.6-3.3,3.1c-0.8,0.4-1.7,0.3-2.1-0.1c-0.1-0.2-0.2-0.6,0.1-0.7l0.3-0.1
				c0.7-0.1,1.2-1.4,1.6-2.4c0.1-0.3,0.2-0.7-0.1-0.7c-0.1-0.1-0.1-0.2-0.9,0.3c-0.7,0.7-1.1,1.4-1.4,2.3c-0.8,1.6-1.6,4.9-1.4,7.6
				l0.5-0.9c0.7-0.8,2.1-1.1,3.4-0.9c1.1,0.2,2.8,1.4,2.6,2.2c-0.7,1.2-1.5,0-2.5-0.1c-1.3-0.2-2.8-0.2-3.8,0.9
				c-0.8,0.5-0.4,2-0.4,3c0.4,4.9,0.2,9.3,1.4,14c0.7,2.7,3.1,5.1,5.8,5.8c2.5,0.7,2.7,0.4,3.6,1.6c0.9,1.2,5.2,1.7,7.8,1.4
				c3.7-0.8,7.7-1.7,10.9-4.3c0.3-0.2,0.5-0.3,1-0.7c1.3-0.9,2.6-1.8,3.4-3.3c0.5-0.7-0.1-1.4-0.4-2c-0.5-1.1-0.4-3,0.7-4.2
				c0.3-0.4,1.3-0.6,0.8-1.2C365.2,98.7,364.2,98.1,363.7,97.4z"/>
			<path class="st4" d="M362.9,112.2c0,0-0.3,0-0.4,0.1c-1.1,1.1-6.7,4.8-12.2,6.1c-0.1,0-0.1,0.1-0.2,0.1c-0.5,0.6,0.7,2.5,1.5,3.6
				c1.7,2.3,4.7,2.4,7.3,2c0.3,0,0.4-0.1,0.7-0.2c1.8-0.8,3.9-1.9,5.2-3.6l0.2-0.3c0.8-0.9,1.4-2.1,1.3-3.1
				C366.3,115.4,364.9,112.7,362.9,112.2z"/>
			<path class="st4" d="M342.5,115.6c-0.9-0.3-1.6-0.8-2.5-0.9c-0.7,0.1-1,0.7-1.4,1.1c-1.1,1.1-1.6,2.3-2.2,3.6
				c-0.3,1-0.4,2.3,0.7,2.9c0.9,0.5,2.4,0.7,3.3,0.1c1.9-0.9,3.8-2.5,4.9-4.3c0.2-0.2,0.2-1-0.3-1.3
				C344.3,116.2,343.3,116.1,342.5,115.6z"/>
			<path class="st4" d="M346.1,121.9c-0.3,0.1-0.5,0.5-0.3,0.8l0.3,0.3c0.6,0.1,0.6-0.3,0.5-0.6
				C346.5,122.1,346.4,121.8,346.1,121.9z"/>
		</g>
		<g>
			<g>
				<path class="st3" d="M361.1,90.1c0.1,0.2,0,0.5-0.2,0.5l-0.5-0.1c-1.5-2.2-3.9-3.1-6.2-2.8c-1.2-0.1-2.2,1.2-3.5,0.8
					c-0.4-0.3-0.3-0.8-0.1-1.2c1.7-1.6,4.1-1.9,6.2-1.2C358.4,87,360.4,88.1,361.1,90.1"/>
				<path class="st3" d="M341.3,92.2c0.4,0.4,1.3,2.1,0.8,3.4c-0.1,0.3-0.4,0.5-0.8,0.5c-0.6,0.9-1.2,1.4-2.2,1.7
					c-0.9,0.1-2.2,0-2.7-1.2c-0.4-0.6-0.8-1.8-0.3-2.6c0.1-0.4,0.6-0.8,0.4-0.8c-0.6,0.1-1.1,1-1.2,1.7c-0.1,0.8,0.4,1.8-0.1,1.9
					c-1.3-0.1-0.7-3.3-2.2-3.9c-0.2-0.4,0.3-0.5,0.7-0.6c1.5,0.2,2.3-1.8,3.8-1.7C339,90.5,340.3,91.1,341.3,92.2"/>
				<path class="st3" d="M358.6,93.2c0.5,1.3,2.6-1,1.9,1.2c-0.3,0.6-1,1.1-1.5,1c-0.6-0.2-1-1-1.6-1.4l-0.6-0.6
					c-0.5-0.6-1.5-1-0.4,0.1l1.5,2.5c0.2,0.3,0,0.6-0.3,0.6c-0.5-0.1-0.9-0.1-1.3,0.2c-0.7,1-2.1,1-3.1,0.8c-1-0.5-1.5-1.3-1.7-2.4
					c0.3-1.1,0.2-1.2,0.1-0.9c-0.9,1.3,0.1,2.7-0.3,2.7c-1.4-0.1-0.9-2.2-1.9-3c-0.2-0.4-0.3-1.2,0.1-1.6c1.1-1.1,2.7-0.5,3.9-1.5
					C355.6,90,357.4,91.7,358.6,93.2"/>
				<path class="st3" d="M342.8,97.8c0.3,0.3,0,2.1-0.8,2.7c-0.2,0.3-0.5,1.9-0.4,2.1c-0.1,0.3,1.5,0.3,1.3,1.1
					c-0.6,0.3-1.3,0.2-2,0c-0.4-0.1-0.7-0.6-0.7-1.1c0.5-1.2,0.4-2.6,1.5-3.5C342,98.8,341.9,97.1,342.8,97.8"/>
				<path class="st3" d="M346,103.2c0,0.2-0.1,0.4-0.2,0.5c-0.4,0.1-1.1,0.2-1.6-0.1c-0.1-0.2-0.1-0.5-0.1-0.8
					C344.6,102.2,345.5,102.7,346,103.2"/>
				<path class="st3" d="M349.1,108.5c-1.6,2.7-3,3.3-4.7,2.9c-1.4-0.1-2.3-2.3-3.4-2.7c-0.1-0.1-0.2-0.3-0.1-0.6
					c0.1-0.3,1-0.3,1.4-0.6c0.6-0.6,1-1.4,2-1.1c0.4,0.3,0.9,1.5,1.1,0.4c0.8-0.6,2,0.8,2.4,0.8l1.3,0.3
					C349.4,107.9,349.4,108.5,349.1,108.5"/>
				<path class="st3" d="M343,134.1c0.4,0.5,0.5,1.2,0.3,1.8c-0.2,0.7-0.8,1.3-1.7,1.5l-0.7,0c-0.6-0.4-1.4-0.8-1.5-1.6
					c-0.2-0.5,0-1,0.1-1.3c0.3-0.7,0.7-1,1.4-1.2C341.9,133.1,342.4,133.6,343,134.1"/>
				<path class="st4" d="M341.2,93.6c-0.2-0.4-1.1-1.5-2.5-1.4C340.3,92,341,93,341.2,93.6"/>
				<path class="st4" d="M355.8,94.3c0.2,0.4,0,0.9-0.4,0.9c-0.2,0.2-0.5,0-0.8-0.1c-0.2-0.2-0.3-0.8,0-1.1
					C354.9,93.7,355.7,93.7,355.8,94.3"/>
				<path class="st4" d="M339.4,94.1c0.4,0.3,0.4,0.8,0.3,1c-0.1,0.2-0.3,0.4-0.6,0.4c-0.4-0.1-0.8-0.3-0.8-0.8
					c0-0.4,0.2-0.6,0.5-0.7C339,94,339.2,94,339.4,94.1"/>
				<path class="st4" d="M345.1,109.3c0.3,0,0.8-0.4,1,0.1c0.1,0.8-1.5,0.3-1.7,0.2c-0.2-0.1-1.1-0.3-0.6-0.8
					C344,108.6,344.6,109.5,345.1,109.3"/>
				<path class="st4" d="M341.5,134.6c-0.1,0.3-0.1,0.6-0.4,0.8c-0.2,0.1-0.4-0.1-0.5-0.3c0-0.4,0-0.7,0.4-0.9
					C341.3,134.2,341.4,134.4,341.5,134.6"/>
			</g>
		</g>
	</g>
	<g>
		<path class="st5" d="M469.3,202.6c0,8-6.5,14.5-14.5,14.5H97.1c-8,0-14.5-6.5-14.5-14.5l0,0c0-8,6.5-14.5,14.5-14.5h357.7
			C462.8,188.1,469.3,194.6,469.3,202.6L469.3,202.6z"/>
	</g>
	<g>
		<g>
			<g>
				<path d="M124.9,201.2v2.1h-5.6v-2.1H124.9z"/>
				<path d="M156.8,201.2v2.1h-5.6v-2.1H156.8z"/>
				<path d="M362.2,201.2v2.1h-5.6v-2.1H362.2z"/>
			</g>
		</g>
		<path d="M99.3,197.1L99.3,197.1l-2.2,1.3l-0.4-2.6l3.1-1.8h2.2v14.6h-2.6V197.1z"/>
		<path d="M108,201.1c-1.1-0.7-1.7-1.9-1.7-3.2c0-2.5,1.8-4.1,4.1-4.1c2.7,0,3.8,2,3.8,3.7c0,1.3-0.5,2.5-1.7,3.2v0.1
			c1.1,0.5,2.1,1.7,2.1,3.6c0,2.6-1.8,4.4-4.5,4.4c-2.9,0-4.3-2.1-4.3-4.1C106,203.1,106.8,201.9,108,201.1L108,201.1z M112,204.7
			c0-1.3-0.8-2-1.8-2.4c-0.9,0.3-1.4,1.1-1.4,2.2c0,1.1,0.6,2,1.6,2C111.3,206.5,112,205.8,112,204.7z M108.9,197.8
			c0,1,0.7,1.6,1.6,2c0.6-0.2,1.2-0.9,1.2-1.8c0-0.9-0.4-1.8-1.4-1.8C109.4,196.1,108.9,196.9,108.9,197.8z"/>
		<path d="M130.9,197.1L130.9,197.1l-2.2,1.3l-0.4-2.6l3.1-1.8h2.2v14.6h-2.6V197.1z"/>
		<path d="M138.6,206.2c0.4,0,0.6,0,1.2,0c0.8-0.1,1.7-0.4,2.3-0.9c0.8-0.7,1.3-1.6,1.5-2.7l0,0c-0.5,0.7-1.3,1.1-2.3,1.1
			c-2,0-3.6-1.7-3.6-4.5s1.8-5.2,4.4-5.2c3,0,4.4,2.9,4.4,6.3c0,3-0.8,5.2-2,6.7c-1.1,1.3-2.6,1.9-4.4,2c-0.4,0-0.9,0-1.2,0V206.2z
			 M140.2,198.9c0,1.3,0.6,2.3,1.6,2.3c0.7,0,1.3-0.4,1.5-0.9c0.1-0.2,0.1-0.4,0.1-0.9c0-1.5-0.4-3.1-1.7-3.1
			C140.8,196.3,140.2,197.4,140.2,198.9z"/>
		<path d="M161.5,208.6v-2.1l1.5-1.7c2.5-2.9,3.8-4.5,3.8-6.2c0-1.2-0.6-2.1-1.9-2.1c-1,0-1.9,0.6-2.5,1.2l-0.8-2.4
			c0.9-0.8,2.2-1.5,3.8-1.5c2.6,0,4.1,1.9,4.1,4.5c0,2.5-1.4,4.4-3.1,6.3l-1.1,1.1v0h4.4v2.8H161.5z"/>
		<path d="M180.3,201.3c0,4.5-1.4,7.6-4.4,7.6c-3,0-4.3-3.4-4.3-7.5c0-4.2,1.4-7.5,4.4-7.5C179.1,193.8,180.3,197.3,180.3,201.3z
			 M174.3,201.4c0,3.3,0.6,4.9,1.7,4.9c1.1,0,1.6-1.7,1.6-5c0-3.2-0.6-4.9-1.6-4.9C175,196.4,174.3,198,174.3,201.4z"/>
		<path d="M185,210.8c0.7-0.1,1.3-0.3,1.6-0.7c0.4-0.5,0.5-1.4,0.5-3.6v-8.8h2.7v9.7c0,2.4-0.4,3.8-1.2,4.8
			c-0.8,0.9-2.1,1.3-3.3,1.3L185,210.8z M189.9,194.6c0,0.9-0.6,1.7-1.5,1.7c-0.9,0-1.4-0.8-1.4-1.7c0-1,0.6-1.7,1.4-1.7
			C189.4,192.9,189.9,193.7,189.9,194.6z"/>
		<path d="M200.7,205.1c0,1.4,0,2.6,0.1,3.5h-2.4l-0.1-1.5h-0.1c-0.3,0.7-1.2,1.8-2.7,1.8c-1.8,0-3.1-1.4-3.1-4.8v-6.4h2.7v5.9
			c0,1.6,0.4,2.6,1.4,2.6c0.7,0,1.2-0.6,1.4-1.2c0.1-0.2,0.1-0.4,0.1-0.7v-6.5h2.7V205.1z"/>
		<path d="M203.3,201.2c0-1.4,0-2.5-0.1-3.5h2.4l0.1,1.5h0.1c0.4-0.7,1.2-1.8,2.7-1.8c1.8,0,3.1,1.5,3.1,4.7v6.5h-2.7v-6.1
			c0-1.4-0.4-2.4-1.4-2.4c-0.7,0-1.2,0.6-1.4,1.3c-0.1,0.2-0.1,0.5-0.1,0.9v6.3h-2.7V201.2z"/>
		<path d="M217,194.6c0,0.9-0.6,1.7-1.5,1.7c-0.9,0-1.4-0.8-1.4-1.7c0-1,0.6-1.7,1.4-1.7C216.5,192.9,217,193.7,217,194.6z
			 M214.3,208.6v-11h2.7v11H214.3z"/>
		<path d="M224.3,208.6v-2.1l1.5-1.7c2.5-2.9,3.8-4.5,3.8-6.2c0-1.2-0.6-2.1-1.9-2.1c-1,0-1.9,0.6-2.5,1.2l-0.8-2.4
			c0.9-0.8,2.2-1.5,3.8-1.5c2.6,0,4.1,1.9,4.1,4.5c0,2.5-1.4,4.4-3.1,6.3l-1.1,1.1v0h4.4v2.8H224.3z"/>
		<path d="M243.2,201.3c0,4.5-1.4,7.6-4.4,7.6c-3,0-4.3-3.4-4.3-7.5c0-4.2,1.4-7.5,4.4-7.5C242,193.8,243.2,197.3,243.2,201.3z
			 M237.2,201.4c0,3.3,0.6,4.9,1.7,4.9c1.1,0,1.6-1.7,1.6-5c0-3.2-0.6-4.9-1.6-4.9C237.9,196.4,237.2,198,237.2,201.4z"/>
		<path d="M245.1,208.6v-2.1l1.5-1.7c2.5-2.9,3.8-4.5,3.8-6.2c0-1.2-0.6-2.1-1.9-2.1c-1,0-1.9,0.6-2.5,1.2l-0.8-2.4
			c0.9-0.8,2.2-1.5,3.8-1.5c2.6,0,4.1,1.9,4.1,4.5c0,2.5-1.4,4.4-3.1,6.3l-1.1,1.1v0h4.4v2.8H245.1z"/>
		<path d="M258.9,197.1L258.9,197.1l-2.2,1.3l-0.4-2.6l3.1-1.8h2.2v14.6h-2.6V197.1z"/>
		<path d="M281.1,202.9c-0.1-1.8-0.1-4-0.1-6.2h0c-0.4,1.9-0.9,4.1-1.4,5.8l-1.5,5.9H276l-1.3-5.8c-0.4-1.8-0.8-3.9-1.1-5.9h0
			c-0.1,2-0.1,4.4-0.2,6.2l-0.2,5.7h-2.5l0.8-15.1h3.6l1.2,5c0.4,1.7,0.7,3.6,1,5.4h0.1c0.3-1.7,0.7-3.7,1.1-5.4l1.3-5h3.6l0.6,15.1
			h-2.6L281.1,202.9z"/>
		<path d="M288.5,204.3c0.1,1.4,1.2,2.1,2.5,2.1c0.9,0,1.7-0.2,2.4-0.5l0.4,2.3c-0.9,0.5-2,0.7-3.2,0.7c-3,0-4.6-2.2-4.6-5.6
			c0-2.8,1.4-5.8,4.4-5.8c2.8,0,3.9,2.8,3.9,5.5c0,0.6-0.1,1.1-0.1,1.3H288.5z M291.7,201.9c0-0.8-0.3-2.2-1.5-2.2
			c-1.1,0-1.6,1.3-1.7,2.2H291.7z"/>
		<path d="M304.6,207.1c0,2.1-0.3,3.8-1.3,4.9c-0.9,1-2.2,1.3-3.5,1.3c-1.2,0-2.4-0.3-3.1-0.8l0.5-2.6c0.6,0.4,1.5,0.8,2.5,0.8
			c1.3,0,2.3-0.9,2.3-2.9v-0.7h0c-0.5,0.9-1.4,1.4-2.4,1.4c-2.2,0-3.7-2.2-3.7-5.3c0-3.5,1.8-5.8,4-5.8c1.2,0,1.9,0.6,2.4,1.6h0
			l0.1-1.3h2.3c0,0.7-0.1,1.6-0.1,3.3V207.1z M301.9,202.1c0-0.2,0-0.4-0.1-0.6c-0.2-0.9-0.7-1.5-1.5-1.5c-1,0-1.8,1.1-1.8,3.1
			c0,1.6,0.6,2.9,1.8,2.9c0.7,0,1.3-0.6,1.4-1.4c0.1-0.3,0.1-0.6,0.1-0.9V202.1z"/>
		<path d="M314.5,206c0,1,0,2,0.1,2.6h-2.4l-0.2-1.1H312c-0.6,0.9-1.5,1.3-2.5,1.3c-1.8,0-2.8-1.6-2.8-3.4c0-2.8,2-4.2,5.1-4.2v-0.1
			c0-0.6-0.2-1.4-1.6-1.4c-0.9,0-1.8,0.4-2.4,0.8l-0.5-2.2c0.6-0.4,1.8-1,3.4-1c2.9,0,3.8,2.2,3.8,4.7V206z M311.9,203.5
			c-1.4,0-2.5,0.4-2.5,1.7c0,0.9,0.5,1.3,1.1,1.3c0.7,0,1.2-0.6,1.4-1.3c0-0.2,0.1-0.4,0.1-0.6V203.5z"/>
		<path d="M317.2,192.7h2.7v15.9h-2.7V192.7z"/>
		<path d="M329.8,206c0,1,0,2,0.1,2.6h-2.4l-0.2-1.1h-0.1c-0.6,0.9-1.5,1.3-2.5,1.3c-1.8,0-2.8-1.6-2.8-3.4c0-2.8,2-4.2,5.1-4.2
			v-0.1c0-0.6-0.2-1.4-1.6-1.4c-0.9,0-1.8,0.4-2.4,0.8l-0.5-2.2c0.6-0.4,1.8-1,3.4-1c2.9,0,3.8,2.2,3.8,4.7V206z M327.2,203.5
			c-1.4,0-2.5,0.4-2.5,1.7c0,0.9,0.5,1.3,1.1,1.3c0.7,0,1.2-0.6,1.4-1.3c0-0.2,0.1-0.4,0.1-0.6V203.5z"/>
		<path d="M332.5,201.2c0-1.4,0-2.5-0.1-3.5h2.4l0.1,1.5h0.1c0.4-0.7,1.2-1.8,2.7-1.8c1.8,0,3.1,1.5,3.1,4.7v6.5H338v-6.1
			c0-1.4-0.4-2.4-1.4-2.4c-0.7,0-1.2,0.6-1.4,1.3c-0.1,0.2-0.1,0.5-0.1,0.9v6.3h-2.7V201.2z"/>
		<path d="M351.8,192.7v12.6c0,1.2,0,2.5,0.1,3.3h-2.4l-0.1-1.6h-0.1c-0.5,1.2-1.6,1.8-2.7,1.8c-2.1,0-3.7-2.2-3.7-5.6
			c0-3.7,1.8-5.8,3.9-5.8c1.1,0,1.9,0.5,2.3,1.2h0v-5.9H351.8z M349.1,202.3c0-0.2,0-0.4,0-0.6c-0.2-0.9-0.7-1.7-1.6-1.7
			c-1.2,0-1.9,1.4-1.9,3.1c0,1.9,0.7,3,1.9,3c0.8,0,1.4-0.7,1.6-1.6c0-0.2,0.1-0.5,0.1-0.8V202.3z"/>
		<path d="M367,193.5h2.7v12.2h4.8v2.9H367V193.5z"/>
		<path d="M383.8,206c0,1,0,2,0.1,2.6h-2.4l-0.2-1.1h-0.1c-0.6,0.9-1.5,1.3-2.5,1.3c-1.8,0-2.8-1.6-2.8-3.4c0-2.8,2-4.2,5.1-4.2
			v-0.1c0-0.6-0.2-1.4-1.6-1.4c-0.9,0-1.8,0.4-2.4,0.8l-0.5-2.2c0.6-0.4,1.8-1,3.4-1c2.9,0,3.8,2.2,3.8,4.7V206z M381.2,203.5
			c-1.4,0-2.5,0.4-2.5,1.7c0,0.9,0.5,1.3,1.1,1.3c0.7,0,1.2-0.6,1.4-1.3c0-0.2,0.1-0.4,0.1-0.6V203.5z"/>
		<path d="M386.5,201.2c0-1.4,0-2.5-0.1-3.5h2.4l0.1,1.5h0.1c0.4-0.7,1.2-1.8,2.7-1.8c1.8,0,3.1,1.5,3.1,4.7v6.5H392v-6.1
			c0-1.4-0.4-2.4-1.4-2.4c-0.7,0-1.2,0.6-1.4,1.3c-0.1,0.2-0.1,0.5-0.1,0.9v6.3h-2.7V201.2z"/>
		<path d="M405.8,192.7v12.6c0,1.2,0,2.5,0.1,3.3h-2.4l-0.1-1.6h-0.1c-0.5,1.2-1.6,1.8-2.7,1.8c-2.1,0-3.7-2.2-3.7-5.6
			c0-3.7,1.8-5.8,3.9-5.8c1.1,0,1.9,0.5,2.3,1.2h0v-5.9H405.8z M403.1,202.3c0-0.2,0-0.4,0-0.6c-0.2-0.9-0.7-1.7-1.6-1.7
			c-1.2,0-1.9,1.4-1.9,3.1c0,1.9,0.7,3,1.9,3c0.8,0,1.4-0.7,1.6-1.6c0-0.2,0.1-0.5,0.1-0.8V202.3z"/>
		<path d="M416.7,207.1c0,2.1-0.3,3.8-1.3,4.9c-0.9,1-2.2,1.3-3.5,1.3c-1.2,0-2.4-0.3-3.1-0.8l0.5-2.6c0.6,0.4,1.5,0.8,2.5,0.8
			c1.3,0,2.3-0.9,2.3-2.9v-0.7h0c-0.5,0.9-1.4,1.4-2.4,1.4c-2.2,0-3.7-2.2-3.7-5.3c0-3.5,1.8-5.8,4-5.8c1.2,0,1.9,0.6,2.4,1.6h0
			l0.1-1.3h2.3c0,0.7-0.1,1.6-0.1,3.3V207.1z M414,202.1c0-0.2,0-0.4-0.1-0.6c-0.2-0.9-0.7-1.5-1.5-1.5c-1,0-1.8,1.1-1.8,3.1
			c0,1.6,0.6,2.9,1.8,2.9c0.7,0,1.3-0.6,1.4-1.4c0.1-0.3,0.1-0.6,0.1-0.9V202.1z"/>
		<path d="M419.4,201.3c0-1.6,0-2.7-0.1-3.6h2.3l0.1,2h0.1c0.4-1.6,1.5-2.3,2.3-2.3c0.2,0,0.4,0,0.6,0.1v3.2c-0.2,0-0.4-0.1-0.7-0.1
			c-1,0-1.7,0.7-1.9,1.7c0,0.2-0.1,0.5-0.1,0.8v5.6h-2.7V201.3z"/>
		<path d="M433.7,206c0,1,0,2,0.1,2.6h-2.4l-0.2-1.1h-0.1c-0.6,0.9-1.5,1.3-2.5,1.3c-1.8,0-2.8-1.6-2.8-3.4c0-2.8,2-4.2,5.1-4.2
			v-0.1c0-0.6-0.2-1.4-1.6-1.4c-0.9,0-1.8,0.4-2.4,0.8l-0.5-2.2c0.6-0.4,1.8-1,3.4-1c2.9,0,3.8,2.2,3.8,4.7V206z M431.1,203.5
			c-1.4,0-2.5,0.4-2.5,1.7c0,0.9,0.5,1.3,1.1,1.3c0.7,0,1.2-0.6,1.4-1.3c0-0.2,0.1-0.4,0.1-0.6V203.5z"/>
		<path d="M443.6,206c0,1,0,2,0.1,2.6h-2.4l-0.2-1.1h-0.1c-0.6,0.9-1.5,1.3-2.5,1.3c-1.8,0-2.8-1.6-2.8-3.4c0-2.8,2-4.2,5.1-4.2
			v-0.1c0-0.6-0.2-1.4-1.6-1.4c-0.9,0-1.8,0.4-2.4,0.8l-0.5-2.2c0.6-0.4,1.8-1,3.4-1c2.9,0,3.8,2.2,3.8,4.7V206z M441,203.5
			c-1.4,0-2.5,0.4-2.5,1.7c0,0.9,0.5,1.3,1.1,1.3c0.7,0,1.2-0.6,1.4-1.3c0-0.2,0.1-0.4,0.1-0.6V203.5z"/>
		<path d="M446.6,208.6v-8.4h-1.2v-2.5h1.2v-0.4c0-1.3,0.3-2.8,1.1-3.7c0.7-0.8,1.6-1.1,2.4-1.1c0.6,0,1.1,0.1,1.4,0.2l-0.1,2.6
			c-0.2-0.1-0.5-0.2-0.9-0.2c-0.9,0-1.3,0.9-1.3,1.9v0.6h1.7v2.5h-1.7v8.4H446.6z"/>
	</g>
</g>
</svg>
